<?xml version="1.0" standalone="no"?>
<svg
  width="600"
  height="600"
  viewBox="0 0 600 600"
  xmlns="http://www.w3.org/2000/svg"
>
  <g transform="translate(300,300)">
    <path d="M84.5,-115.3C125.7,-105,186.6,-109,191.1,-89.9C195.6,-70.9,143.8,-28.8,127.5,11.6C111.2,52,130.4,90.9,124.9,122.1C119.4,153.3,89.1,176.9,56.3,182.2C23.5,187.4,-11.9,174.3,-36.5,153.7C-61,133,-74.7,104.8,-92.9,81.7C-111.1,58.6,-133.7,40.5,-138.3,19C-142.8,-2.6,-129.1,-27.7,-108.8,-40.3C-88.4,-52.8,-61.2,-52.9,-42,-73.3C-22.7,-93.7,-11.4,-134.3,5.1,-142.3C21.6,-150.3,43.3,-125.6,84.5,-115.3Z" fill="#8adec7" />
  </g>
</svg>
  